<?xml version="1.0" encoding="iso-8859-1"?>
<!-- Generator: Adobe Illustrator 18.0.0, SVG Export Plug-In . SVG Version: 6.00 Build 0)  -->
<!DOCTYPE svg PUBLIC "-//W3C//DTD SVG 1.1//EN" "http://www.w3.org/Graphics/SVG/1.1/DTD/svg11.dtd">
<svg version="1.1" id="Capa_1" xmlns="http://www.w3.org/2000/svg" xmlns:xlink="http://www.w3.org/1999/xlink" x="0px" y="0px"
	 viewBox="0 0 370.486 370.486" style="enable-background:new 0 0 370.486 370.486;" xml:space="preserve">
<g>
	<g>
		<g>
			<g>
				<path d="M262.091,232.68c-14.081,0-25.536-11.457-25.536-25.539c0-14.251,11.455-25.846,25.536-25.846
					c14.494,0,25.848,11.352,25.848,25.846C287.939,221.223,276.344,232.68,262.091,232.68z M262.091,196.295
					c-5.908,0-10.536,4.764-10.536,10.846c0,5.812,4.727,10.539,10.536,10.539c6.083,0,10.848-4.629,10.848-10.539
					C272.939,201.059,268.174,196.295,262.091,196.295z M262.091,178.258c-14.081,0-25.536-11.455-25.536-25.535
					c0-7.209,1.563-43.958,32.414-59.559c10.365-5.182,12.988-8.038,12.988-22.229c0-10.781-8.912-19.553-19.866-19.553
					c-10.781,0-19.553,8.771-19.553,19.553c0,14.254-11.595,25.85-25.848,25.85c-14.081,0-25.538-11.596-25.538-25.85
					C191.153,31.821,222.975,0,262.091,0s70.939,31.821,70.939,70.936c0,32.994-12.691,54.054-41.152,68.282
					c-1.748,1.13-3.938,8.587-3.938,13.505C287.939,166.803,276.344,178.258,262.091,178.258z M262.091,36.383
					c19.226,0,34.866,15.5,34.866,34.553c0,21.14-7.156,28.585-21.25,35.63c-23.474,11.87-24.152,42.683-24.152,46.157
					c0,5.81,4.727,10.535,10.536,10.535c6.083,0,10.848-4.628,10.848-10.535c0-0.208,0.333-20.972,12.231-26.921
					c23.34-11.669,32.859-27.565,32.859-54.866C318.03,40.093,292.936,15,262.091,15c-30.845,0-55.938,25.093-55.938,55.936
					c0,5.881,4.826,10.85,10.538,10.85c5.981,0,10.848-4.867,10.848-10.85C227.539,51.883,243.04,36.383,262.091,36.383z"/>
			</g>
		</g>
		<g>
			<path d="M159.995,261.662c-32.03,0-58.089-26.059-58.089-58.088s26.059-58.088,58.089-58.088
				c32.029,0,58.088,26.059,58.088,58.088S192.024,261.662,159.995,261.662z M159.995,160.486c-23.76,0-43.089,19.329-43.089,43.088
				s19.329,43.088,43.089,43.088c23.759,0,43.088-19.329,43.088-43.088S183.753,160.486,159.995,160.486z"/>
		</g>
		<path d="M214.7,266.662H112c-12.588,0-22.83-10.241-22.83-22.83c0-0.067-0.012-112.406-0.012-112.406
			c0-11.586-10.032-21.012-22.364-21.012h-6.973c-12.332,0-22.365,9.426-22.365,21.012v158.393c0,18.293,13.053,33.592,30.332,37.08
			v36.088c0,4.143,3.357,7.5,7.499,7.5H244.7c4.143,0,7.5-3.357,7.5-7.5v-58.824C252.2,283.484,235.377,266.662,214.7,266.662z
			 M52.457,131.426c0-3.314,3.305-6.012,7.365-6.012h6.973c4.061,0,7.364,2.697,7.364,6.012v6.328H52.457V131.426z M237.2,355.486
			H82.788v-35.322v-0.013c0,0,0-0.002,0-0.003c0-4.143-3.357-7.5-7.5-7.5c-12.589,0-22.831-10.241-22.831-22.83V152.754H74.17
			c0,0,0,91.011,0,91.078c0,20.859,16.971,37.83,37.83,37.83H214.7c12.407,0,22.5,10.094,22.5,22.5V355.486z"/>
	</g>
</g>
<g>
</g>
<g>
</g>
<g>
</g>
<g>
</g>
<g>
</g>
<g>
</g>
<g>
</g>
<g>
</g>
<g>
</g>
<g>
</g>
<g>
</g>
<g>
</g>
<g>
</g>
<g>
</g>
<g>
</g>
</svg>
